# xmcd
# Copyright (C) 1995-1998 Ti Kan
#
# Track frame offsets:
#       150
#       20082
#       43458
#       70247
#       88052
#       108877
#       134204
#       172062
#       195035
#       219819
#       232194
#       251221
#       272482
#
# Disc length: 4351 seconds
#
# Revision: 0
# Processed by: cddbd v1.5.2PL0 Copyright (c) Steve Scherf et al.
# Submitted via: CD-Import v1.0
#
DISCID=c310fd0d
DTITLE=Dervish - Spirit
DYEAR=1900
DGENRE=
TTITLE0=John Blessings (Reels)
TTITLE1=Jig Songs
TTITLE2=Father Jack (Jigs)
TTITLE3=Fair-Haired Boy
TTITLE4=Siesta Set (Reels)
TTITLE5=Soldier Laddie
TTITLE6=Beauties Of Autumn (March and Hornpipe)
TTITLE7=The Lag's Song
TTITLE8=Boots Of Spanish Leather
TTITLE9=O'raghailligh's Grave (Air)
TTITLE10=Swallows Tail (Reel)
TTITLE11=The Cocks Are Crowing
TTITLE12=Whelans (Jigs)
EXTD=
EXTT0=
EXTT1=
EXTT2=
EXTT3=
EXTT4=
EXTT5=
EXTT6=
EXTT7=
EXTT8=
EXTT9=
EXTT10=
EXTT11=
EXTT12=
PLAYORDER=
